<svg id="Layer_1" data-name="Layer 1" xmlns="http://www.w3.org/2000/svg" viewBox="0 0 249.04 184.53"><defs><style>.full-logo-class-1{fill:#231f20;}.full-logo-class-2{fill:#c3962d;}.full-logo-class-2,.full-logo-class-3,.full-logo-class-4{stroke:#1d170c;}.full-logo-class-2,.full-logo-class-3,.full-logo-class-4,.full-logo-class-7{stroke-miterlimit:10;stroke-width:4px;}.full-logo-class-3{fill:#f5c029;}.full-logo-class-4,.full-logo-class-7{fill:none;}.full-logo-class-5{fill:#3a3a3a;}.full-logo-class-6{fill:#0eabc4;}.full-logo-class-7{stroke:#c2952d;}</style></defs><title>Artboard 1</title><path class="full-logo-class-1" d="M0,170.14v-.08a14.23,14.23,0,0,1,14.6-14.48c5.28,0,8.44,1.76,11,4.32l-3.92,4.52c-2.16-2-4.36-3.16-7.16-3.16-4.72,0-8.12,3.92-8.12,8.72v.08c0,4.8,3.32,8.8,8.12,8.8,3.2,0,5.16-1.28,7.36-3.28l3.92,4a14.31,14.31,0,0,1-11.48,5A14.13,14.13,0,0,1,0,170.14Z"/><path class="full-logo-class-1" d="M36.76,156.06H57.88v5.48h-15v5.68h13.2v5.48H42.88v5.88h15.2v5.48H36.76Z"/><path class="full-logo-class-1" d="M69.56,156.06h5.68L88.36,173.3V156.06h6.08v28H89.2l-13.56-17.8v17.8H69.56Z"/><path class="full-logo-class-1" d="M113.68,161.74h-8.52v-5.68h23.2v5.68h-8.52v22.32h-6.16Z"/><path class="full-logo-class-1" d="M139.36,156.06h6.16v28h-6.16Z"/><path class="full-logo-class-1" d="M158.52,156.06h5.68l13.12,17.24V156.06h6.08v28h-5.24l-13.56-17.8v17.8h-6.08Z"/><path class="full-logo-class-1" d="M196.12,156.06h21.12v5.48h-15v5.68h13.2v5.48h-13.2v5.88h15.2v5.48H196.12Z"/><path class="full-logo-class-1" d="M228.92,156.06h6.16v22.4h14v5.6H228.92Z"/><path class="full-logo-class-2" d="M191,55H58.05S56.56,87.1,75.49,103.32c13.8,12.86,34.67,15.9,49,15.9s35.23-3,49-15.9C192.47,87.1,191,55,191,55Z"/><ellipse class="full-logo-class-3" cx="124.52" cy="54.99" rx="66.46" ry="52.94"/><line class="full-logo-class-4" x1="180.47" y1="83.29" x2="180.47" y2="95.17"/><line class="full-logo-class-4" x1="173.02" y1="90.81" x2="173.02" y2="104.04"/><line class="full-logo-class-4" x1="163.94" y1="97.92" x2="163.94" y2="111.16"/><line class="full-logo-class-4" x1="154.85" y1="101.51" x2="154.85" y2="114.74"/><line class="full-logo-class-4" x1="144.92" y1="105.03" x2="144.92" y2="118.27"/><line class="full-logo-class-4" x1="134.72" y1="106.82" x2="134.72" y2="120.05"/><line class="full-logo-class-4" x1="124.52" y1="106.82" x2="124.52" y2="120.05"/><line class="full-logo-class-4" x1="68.56" y1="83.13" x2="68.56" y2="95"/><line class="full-logo-class-4" x1="76.01" y1="90.64" x2="76.01" y2="103.87"/><line class="full-logo-class-4" x1="85.1" y1="97.75" x2="85.1" y2="110.99"/><line class="full-logo-class-4" x1="94.19" y1="101.34" x2="94.19" y2="114.57"/><line class="full-logo-class-4" x1="104.12" y1="104.87" x2="104.12" y2="118.1"/><line class="full-logo-class-4" x1="114.32" y1="106.65" x2="114.32" y2="119.89"/><path class="full-logo-class-5" d="M158.29,38.06H90.74c-5.37,0-9.72,5-9.72,11.09s4.35,11.09,9.72,11.09h67.55c5.37,0,9.72-5,9.72-11.09S163.66,38.06,158.29,38.06Z"/><rect class="full-logo-class-6" x="81.44" y="47.95" width="86.16" height="2.4"/><path class="full-logo-class-7" d="M158.29,38.25H90.74c-5.37,0-9.72,4.88-9.72,10.9s4.35,10.9,9.72,10.9h67.55c5.37,0,9.72-4.88,9.72-10.9S163.66,38.25,158.29,38.25Z"/></svg>
