<svg id="Layer_1" data-name="Layer 1" xmlns="http://www.w3.org/2000/svg" viewBox="0 0 740.73 121.46"><defs><style>.cls-1{fill:#c3962d;}.cls-1,.cls-2,.cls-3{stroke:#1d170c;}.cls-1,.cls-2,.cls-3,.cls-6{stroke-miterlimit:10;stroke-width:4px;}.cls-2{fill:#f5c029;}.cls-3,.cls-6{fill:none;}.cls-4{fill:#3a3a3a;}.cls-5{fill:#0eabc4;}.cls-6{stroke:#c2952d;}.cls-7{fill:#231f20;}</style></defs><title>Artboard 5</title><path class="cls-1" d="M135,55.14H2.12S.63,87.25,19.56,103.47c13.8,12.86,34.67,15.9,49,15.9s35.23-3,49-15.9C136.54,87.25,135,55.14,135,55.14Z"/><ellipse class="cls-2" cx="68.58" cy="55.14" rx="66.46" ry="52.94"/><line class="cls-3" x1="124.54" y1="83.44" x2="124.54" y2="95.32"/><line class="cls-3" x1="117.09" y1="90.96" x2="117.09" y2="104.19"/><line class="cls-3" x1="108" y1="98.07" x2="108" y2="111.3"/><line class="cls-3" x1="98.91" y1="101.65" x2="98.91" y2="114.89"/><line class="cls-3" x1="88.98" y1="105.18" x2="88.98" y2="118.41"/><line class="cls-3" x1="78.78" y1="106.97" x2="78.78" y2="120.2"/><line class="cls-3" x1="68.58" y1="106.97" x2="68.58" y2="120.2"/><line class="cls-3" x1="12.63" y1="83.27" x2="12.63" y2="95.15"/><line class="cls-3" x1="20.08" y1="90.79" x2="20.08" y2="104.02"/><line class="cls-3" x1="29.16" y1="97.9" x2="29.16" y2="111.14"/><line class="cls-3" x1="38.25" y1="101.49" x2="38.25" y2="114.72"/><line class="cls-3" x1="48.18" y1="105.01" x2="48.18" y2="118.25"/><line class="cls-3" x1="58.38" y1="106.8" x2="58.38" y2="120.03"/><path class="cls-4" d="M102.36,38.21H34.81c-5.37,0-9.72,5-9.72,11.09s4.35,11.09,9.72,11.09h67.55c5.37,0,9.72-5,9.72-11.09S107.72,38.21,102.36,38.21Z"/><rect class="cls-5" x="25.5" y="48.1" width="86.16" height="2.4"/><path class="cls-6" d="M102.36,38.4H34.81c-5.37,0-9.72,4.88-9.72,10.9s4.35,10.9,9.72,10.9h67.55c5.37,0,9.72-4.88,9.72-10.9S107.72,38.4,102.36,38.4Z"/><path class="cls-7" d="M187.85,60.91v-.18c0-17.67,13.32-32.14,32.41-32.14,11.72,0,18.73,3.91,24.51,9.59l-8.7,10c-4.79-4.35-9.68-7-15.89-7-10.48,0-18,8.7-18,19.36v.18c0,10.66,7.37,19.53,18,19.53,7.1,0,11.45-2.84,16.34-7.28l8.7,8.79c-6.39,6.84-13.5,11.1-25.48,11.1C201.44,92.87,187.85,78.75,187.85,60.91Z"/><path class="cls-7" d="M269.46,29.65h46.88V41.82H283V54.43h29.3V66.59H283V79.64h33.74V91.81H269.46Z"/><path class="cls-7" d="M342.28,29.65h12.61L384,67.92V29.65h13.5V91.81H385.88L355.78,52.3V91.81h-13.5Z"/><path class="cls-7" d="M440.23,42.26H421.31V29.65h51.5V42.26H453.9V91.81H440.23Z"/><path class="cls-7" d="M497.24,29.65h13.67V91.81H497.24Z"/><path class="cls-7" d="M539.78,29.65h12.61l29.12,38.27V29.65H595V91.81H583.37L553.27,52.3V91.81h-13.5Z"/><path class="cls-7" d="M623.25,29.65h46.88V41.82h-33.3V54.43h29.3V66.59h-29.3V79.64h33.74V91.81H623.25Z"/><path class="cls-7" d="M696.07,29.65h13.67V79.38h31V91.81H696.07Z"/></svg>