<svg id="Layer_1" data-name="Layer 1" xmlns="http://www.w3.org/2000/svg" viewBox="0 0 300 250"><defs><style>.cls-1{fill:#231f20;}.cls-2{fill:#c3962d;}.cls-2,.cls-3,.cls-4{stroke:#1d170c;}.cls-2,.cls-3,.cls-4,.cls-7{stroke-miterlimit:10;stroke-width:4px;}.cls-3{fill:#f5c029;}.cls-4,.cls-7{fill:none;}.cls-5{fill:#3a3a3a;}.cls-6{fill:#0eabc4;}.cls-7{stroke:#c2952d;}</style></defs><title>Artboard 1</title><path class="cls-1" d="M25.48,201.85v-.08a14.23,14.23,0,0,1,14.6-14.48c5.28,0,8.44,1.76,11,4.32l-3.92,4.52C45,194.17,42.84,193,40,193c-4.72,0-8.12,3.92-8.12,8.72v.08c0,4.8,3.32,8.8,8.12,8.8,3.2,0,5.16-1.28,7.36-3.28l3.92,4a14.31,14.31,0,0,1-11.48,5A14.13,14.13,0,0,1,25.48,201.85Z"/><path class="cls-1" d="M62.24,187.77H83.36v5.48h-15v5.68h13.2v5.48H68.36v5.88h15.2v5.48H62.24Z"/><path class="cls-1" d="M95,187.77h5.68L113.84,205V187.77h6.08v28h-5.24L101.12,198v17.8H95Z"/><path class="cls-1" d="M139.16,193.45h-8.52v-5.68h23.2v5.68h-8.52v22.32h-6.16Z"/><path class="cls-1" d="M164.84,187.77H171v28h-6.16Z"/><path class="cls-1" d="M184,187.77h5.68L202.8,205V187.77h6.08v28h-5.24L190.08,198v17.8H184Z"/><path class="cls-1" d="M221.6,187.77h21.12v5.48h-15v5.68h13.2v5.48h-13.2v5.88h15.2v5.48H221.6Z"/><path class="cls-1" d="M254.4,187.77h6.16v22.4h14v5.6H254.4Z"/><path class="cls-2" d="M216.46,86.7H83.54S82,118.81,101,135c13.8,12.86,34.67,15.9,49,15.9s35.23-3,49-15.9C218,118.81,216.46,86.7,216.46,86.7Z"/><ellipse class="cls-3" cx="150" cy="86.7" rx="66.46" ry="52.94"/><line class="cls-4" x1="205.95" y1="115.01" x2="205.95" y2="126.88"/><line class="cls-4" x1="198.5" y1="122.52" x2="198.5" y2="135.75"/><line class="cls-4" x1="189.42" y1="129.63" x2="189.42" y2="142.87"/><line class="cls-4" x1="180.33" y1="133.22" x2="180.33" y2="146.45"/><line class="cls-4" x1="170.4" y1="136.74" x2="170.4" y2="149.98"/><line class="cls-4" x1="160.2" y1="138.53" x2="160.2" y2="151.76"/><line class="cls-4" x1="150" y1="138.53" x2="150" y2="151.76"/><line class="cls-4" x1="94.05" y1="114.84" x2="94.05" y2="126.71"/><line class="cls-4" x1="101.5" y1="122.35" x2="101.5" y2="135.59"/><line class="cls-4" x1="110.58" y1="129.47" x2="110.58" y2="142.7"/><line class="cls-4" x1="119.67" y1="133.05" x2="119.67" y2="146.28"/><line class="cls-4" x1="129.6" y1="136.58" x2="129.6" y2="149.81"/><line class="cls-4" x1="139.8" y1="138.36" x2="139.8" y2="151.6"/><path class="cls-5" d="M183.77,69.77H116.23c-5.37,0-9.72,5-9.72,11.09S110.86,92,116.23,92h67.55c5.37,0,9.72-5,9.72-11.09S189.14,69.77,183.77,69.77Z"/><rect class="cls-6" x="106.92" y="79.66" width="86.16" height="2.4"/><path class="cls-7" d="M183.77,70H116.23c-5.37,0-9.72,4.88-9.72,10.9s4.35,10.9,9.72,10.9h67.55c5.37,0,9.72-4.88,9.72-10.9S189.14,70,183.77,70Z"/></svg>