<svg id="Layer_1" data-name="Layer 1" xmlns="http://www.w3.org/2000/svg" viewBox="0 0 175 175"><defs><style>.cls-1{fill:#c3962d;}.cls-1,.cls-2,.cls-3{stroke:#1d170c;}.cls-1,.cls-2,.cls-3,.cls-6{stroke-miterlimit:10;stroke-width:4px;}.cls-2{fill:#f5c029;}.cls-3,.cls-6{fill:none;}.cls-4{fill:#3a3a3a;}.cls-5{fill:#0eabc4;}.cls-6{stroke:#c2952d;}</style></defs><title>Artboard 2</title><path class="cls-1" d="M154,81.44H21s-1.49,32.12,17.44,48.33c13.8,12.86,34.67,15.9,49,15.9s35.23-3,49-15.9C155.45,113.56,154,81.44,154,81.44Z"/><ellipse class="cls-2" cx="87.5" cy="81.44" rx="66.46" ry="52.94"/><line class="cls-3" x1="143.45" y1="109.75" x2="143.45" y2="121.62"/><line class="cls-3" x1="136" y1="117.26" x2="136" y2="130.49"/><line class="cls-3" x1="126.92" y1="124.37" x2="126.92" y2="137.61"/><line class="cls-3" x1="117.83" y1="127.96" x2="117.83" y2="141.19"/><line class="cls-3" x1="107.9" y1="131.48" x2="107.9" y2="144.72"/><line class="cls-3" x1="97.7" y1="133.27" x2="97.7" y2="146.5"/><line class="cls-3" x1="87.5" y1="133.27" x2="87.5" y2="146.5"/><line class="cls-3" x1="31.55" y1="109.58" x2="31.55" y2="121.45"/><line class="cls-3" x1="39" y1="117.09" x2="39" y2="130.33"/><line class="cls-3" x1="48.08" y1="124.21" x2="48.08" y2="137.44"/><line class="cls-3" x1="57.17" y1="127.79" x2="57.17" y2="141.02"/><line class="cls-3" x1="67.1" y1="131.32" x2="67.1" y2="144.55"/><line class="cls-3" x1="77.3" y1="133.1" x2="77.3" y2="146.34"/><path class="cls-4" d="M121.27,64.51H53.73c-5.37,0-9.72,5-9.72,11.09S48.36,86.7,53.73,86.7h67.55c5.37,0,9.72-5,9.72-11.09S126.64,64.51,121.27,64.51Z"/><rect class="cls-5" x="44.42" y="74.4" width="86.16" height="2.4"/><path class="cls-6" d="M121.27,64.7H53.73C48.36,64.7,44,69.58,44,75.6s4.35,10.9,9.72,10.9h67.55c5.37,0,9.72-4.88,9.72-10.9S126.64,64.7,121.27,64.7Z"/></svg>