<svg id="Layer_1" data-name="Layer 1" xmlns="http://www.w3.org/2000/svg" viewBox="0 0 137.09 121.46">
  <defs>
    <style>.cls-1{fill:#c3962d;}.cls-1,.cls-2,.cls-3{stroke:#1d170c;}.cls-1,.cls-2,.cls-3,.cls-6{stroke-miterlimit:10;stroke-width:4px;}.cls-2{fill:#f5c029;}.cls-3,.cls-6{fill:none;}.cls-4{fill:#3a3a3a;}.cls-5{fill:#0eabc4;}.cls-6{stroke:#c2952d;}</style>
  </defs>
  <title>Artboard 2</title>
  <path class="cls-1" d="M135,55.14H2.12S.63,87.25,19.56,103.47c13.8,12.86,34.67,15.9,49,15.9s35.23-3,49-15.9C136.54,87.25,135,55.14,135,55.14Z"/>
  <ellipse class="cls-2" cx="68.58" cy="55.14" rx="66.46" ry="52.94"/>
  <line class="cls-3" x1="124.54" y1="83.44" x2="124.54" y2="95.32"/>
  <line class="cls-3" x1="117.09" y1="90.96" x2="117.09" y2="104.19"/>
  <line class="cls-3" x1="108" y1="98.07" x2="108" y2="111.3"/>
  <line class="cls-3" x1="98.91" y1="101.65" x2="98.91" y2="114.89"/>
  <line class="cls-3" x1="88.98" y1="105.18" x2="88.98" y2="118.41"/>
  <line class="cls-3" x1="78.78" y1="106.97" x2="78.78" y2="120.2"/>
  <line class="cls-3" x1="68.58" y1="106.97" x2="68.58" y2="120.2"/>
  <line class="cls-3" x1="12.63" y1="83.27" x2="12.63" y2="95.15"/>
  <line class="cls-3" x1="20.08" y1="90.79" x2="20.08" y2="104.02"/>
  <line class="cls-3" x1="29.17" y1="97.9" x2="29.17" y2="111.14"/><line class="cls-3" x1="38.25" y1="101.49" x2="38.25" y2="114.72"/>
  <line class="cls-3" x1="48.19" y1="105.01" x2="48.19" y2="118.25"/><line class="cls-3" x1="58.38" y1="106.8" x2="58.38" y2="120.03"/>
  <path class="cls-4" d="M102.36,38.21H34.81c-5.37,0-9.72,5-9.72,11.09s4.35,11.09,9.72,11.09h67.55c5.37,0,9.72-5,9.72-11.09S107.72,38.21,102.36,38.21Z"/>
  <rect class="cls-5" x="25.5" y="48.1" width="86.16" height="2.4"/>
  <path class="cls-6" d="M102.36,38.4H34.81c-5.37,0-9.72,4.88-9.72,10.9s4.35,10.9,9.72,10.9h67.55c5.37,0,9.72-4.88,9.72-10.9S107.72,38.4,102.36,38.4Z"/>
</svg>
