<svg id="Layer_1" data-name="Layer 1" xmlns="http://www.w3.org/2000/svg" viewBox="0 0 275 75"><defs><style>.cls-1{fill:#231f20;}</style></defs><title>Artboard 3</title><path class="cls-1" d="M13,37.58V37.5A14.23,14.23,0,0,1,27.58,23c5.28,0,8.44,1.76,11,4.32L34.7,31.86c-2.16-2-4.36-3.16-7.16-3.16-4.72,0-8.12,3.92-8.12,8.72v.08c0,4.8,3.32,8.8,8.12,8.8,3.2,0,5.16-1.28,7.36-3.28l3.92,4a14.31,14.31,0,0,1-11.48,5A14.13,14.13,0,0,1,13,37.58Z"/><path class="cls-1" d="M49.74,23.5H70.86V29h-15v5.68h13.2v5.48H55.86V46h15.2V51.5H49.74Z"/><path class="cls-1" d="M82.54,23.5h5.68l13.12,17.24V23.5h6.08v28h-5.24L88.62,33.7V51.5H82.54Z"/><path class="cls-1" d="M126.66,29.18h-8.52V23.5h23.2v5.68h-8.52V51.5h-6.16Z"/><path class="cls-1" d="M152.34,23.5h6.16v28h-6.16Z"/><path class="cls-1" d="M171.5,23.5h5.68L190.3,40.74V23.5h6.08v28h-5.24L177.58,33.7V51.5H171.5Z"/><path class="cls-1" d="M209.1,23.5h21.12V29h-15v5.68h13.2v5.48h-13.2V46h15.2V51.5H209.1Z"/><path class="cls-1" d="M241.9,23.5h6.16V45.9h14v5.6H241.9Z"/></svg>